<mxfile host="app.diagrams.net" agent="Mozilla/5.0 (Macintosh; Intel Mac OS X 10_15_7) AppleWebKit/537.36 (KHTML, like Gecko) Chrome/134.0.0.0 Safari/537.36" version="26.1.1">
  <diagram name="Page-1" id="RIQr6ClWMKEmVXRRly88">
    <mxGraphModel dx="-594" dy="1730" grid="1" gridSize="10" guides="1" tooltips="1" connect="1" arrows="1" fold="1" page="1" pageScale="1" pageWidth="827" pageHeight="1169" math="0" shadow="0">
      <root>
        <mxCell id="0" />
        <mxCell id="1" parent="0" />
        <mxCell id="lSTIobcj1I4NxCM1GmG--1" style="edgeStyle=orthogonalEdgeStyle;shape=connector;rounded=0;orthogonalLoop=1;jettySize=auto;html=1;strokeColor=default;strokeWidth=2;align=center;verticalAlign=middle;fontFamily=Helvetica;fontSize=11;fontColor=default;labelBackgroundColor=default;startFill=0;endArrow=none;exitX=0.5;exitY=0;exitDx=0;exitDy=0;entryX=1;entryY=0.5;entryDx=0;entryDy=0;" parent="1" source="lSTIobcj1I4NxCM1GmG--9" target="lSTIobcj1I4NxCM1GmG--90" edge="1">
          <mxGeometry relative="1" as="geometry">
            <mxPoint x="2270" y="-976" as="targetPoint" />
            <Array as="points">
              <mxPoint x="2300" y="-1020" />
            </Array>
          </mxGeometry>
        </mxCell>
        <mxCell id="lSTIobcj1I4NxCM1GmG--2" value="1,1" style="edgeLabel;html=1;align=center;verticalAlign=middle;resizable=0;points=[];fontFamily=Helvetica;fontSize=11;fontColor=default;labelBackgroundColor=default;" parent="lSTIobcj1I4NxCM1GmG--1" vertex="1" connectable="0">
          <mxGeometry x="-0.8892" y="-3" relative="1" as="geometry">
            <mxPoint x="-3" as="offset" />
          </mxGeometry>
        </mxCell>
        <mxCell id="lSTIobcj1I4NxCM1GmG--3" value="0,n" style="edgeLabel;html=1;align=center;verticalAlign=middle;resizable=0;points=[];fontFamily=Helvetica;fontSize=11;fontColor=default;labelBackgroundColor=default;" parent="lSTIobcj1I4NxCM1GmG--1" vertex="1" connectable="0">
          <mxGeometry x="0.8734" y="-1" relative="1" as="geometry">
            <mxPoint x="-2" as="offset" />
          </mxGeometry>
        </mxCell>
        <mxCell id="lSTIobcj1I4NxCM1GmG--4" value="influe" style="edgeLabel;html=1;align=center;verticalAlign=middle;resizable=0;points=[];fontFamily=Helvetica;fontSize=11;fontColor=default;labelBackgroundColor=default;" parent="lSTIobcj1I4NxCM1GmG--1" vertex="1" connectable="0">
          <mxGeometry x="0.3445" y="2" relative="1" as="geometry">
            <mxPoint x="1" y="29" as="offset" />
          </mxGeometry>
        </mxCell>
        <mxCell id="lSTIobcj1I4NxCM1GmG--5" style="edgeStyle=orthogonalEdgeStyle;rounded=0;orthogonalLoop=1;jettySize=auto;html=1;exitX=1;exitY=0.5;exitDx=0;exitDy=0;endArrow=none;startFill=0;strokeWidth=2;" parent="1" source="lSTIobcj1I4NxCM1GmG--9" target="lSTIobcj1I4NxCM1GmG--113" edge="1">
          <mxGeometry relative="1" as="geometry" />
        </mxCell>
        <mxCell id="lSTIobcj1I4NxCM1GmG--6" value="0,n" style="edgeLabel;html=1;align=center;verticalAlign=middle;resizable=0;points=[];" parent="lSTIobcj1I4NxCM1GmG--5" vertex="1" connectable="0">
          <mxGeometry x="-0.7719" y="1" relative="1" as="geometry">
            <mxPoint x="-4" as="offset" />
          </mxGeometry>
        </mxCell>
        <mxCell id="lSTIobcj1I4NxCM1GmG--7" value="1,1" style="edgeLabel;html=1;align=center;verticalAlign=middle;resizable=0;points=[];" parent="lSTIobcj1I4NxCM1GmG--5" vertex="1" connectable="0">
          <mxGeometry x="0.7594" y="-2" relative="1" as="geometry">
            <mxPoint x="3" y="-3" as="offset" />
          </mxGeometry>
        </mxCell>
        <mxCell id="lSTIobcj1I4NxCM1GmG--8" value="correspond" style="edgeLabel;html=1;align=center;verticalAlign=middle;resizable=0;points=[];" parent="lSTIobcj1I4NxCM1GmG--5" vertex="1" connectable="0">
          <mxGeometry x="0.025" y="3" relative="1" as="geometry">
            <mxPoint x="-1" y="2" as="offset" />
          </mxGeometry>
        </mxCell>
        <mxCell id="lSTIobcj1I4NxCM1GmG--9" value="ANNONCE" style="rounded=0;whiteSpace=wrap;html=1;fontFamily=Helvetica;fontSize=11;labelBackgroundColor=none;fillColor=#dae8fc;strokeColor=#6c8ebf;" parent="1" vertex="1">
          <mxGeometry x="2240" y="-900" width="120" height="40" as="geometry" />
        </mxCell>
        <mxCell id="lSTIobcj1I4NxCM1GmG--19" style="edgeStyle=none;shape=connector;rounded=0;orthogonalLoop=1;jettySize=auto;html=1;strokeColor=default;strokeWidth=2;align=center;verticalAlign=middle;fontFamily=Helvetica;fontSize=11;fontColor=default;labelBackgroundColor=default;startFill=0;endArrow=none;" parent="1" edge="1">
          <mxGeometry relative="1" as="geometry">
            <mxPoint x="2120" y="-890" as="sourcePoint" />
            <mxPoint x="2240" y="-890" as="targetPoint" />
          </mxGeometry>
        </mxCell>
        <mxCell id="lSTIobcj1I4NxCM1GmG--21" value="0,n" style="edgeLabel;html=1;align=center;verticalAlign=middle;resizable=0;points=[];fontFamily=Helvetica;fontSize=11;fontColor=default;labelBackgroundColor=default;" parent="lSTIobcj1I4NxCM1GmG--19" vertex="1" connectable="0">
          <mxGeometry x="-0.8571" y="1" relative="1" as="geometry">
            <mxPoint x="1" as="offset" />
          </mxGeometry>
        </mxCell>
        <mxCell id="lSTIobcj1I4NxCM1GmG--22" value="1,1" style="edgeLabel;html=1;align=center;verticalAlign=middle;resizable=0;points=[];fontFamily=Helvetica;fontSize=11;fontColor=default;labelBackgroundColor=default;" parent="lSTIobcj1I4NxCM1GmG--19" vertex="1" connectable="0">
          <mxGeometry x="0.75" y="2" relative="1" as="geometry">
            <mxPoint x="4" as="offset" />
          </mxGeometry>
        </mxCell>
        <mxCell id="lSTIobcj1I4NxCM1GmG--122" value="créer" style="edgeLabel;html=1;align=center;verticalAlign=middle;resizable=0;points=[];" parent="lSTIobcj1I4NxCM1GmG--19" vertex="1" connectable="0">
          <mxGeometry x="-0.0255" relative="1" as="geometry">
            <mxPoint as="offset" />
          </mxGeometry>
        </mxCell>
        <mxCell id="lSTIobcj1I4NxCM1GmG--23" style="edgeStyle=none;shape=connector;rounded=0;orthogonalLoop=1;jettySize=auto;html=1;strokeColor=default;strokeWidth=2;align=center;verticalAlign=middle;fontFamily=Helvetica;fontSize=11;fontColor=default;labelBackgroundColor=default;startFill=0;endArrow=none;" parent="1" edge="1">
          <mxGeometry relative="1" as="geometry">
            <mxPoint x="2120" y="-872" as="sourcePoint" />
            <mxPoint x="2240" y="-872" as="targetPoint" />
          </mxGeometry>
        </mxCell>
        <mxCell id="lSTIobcj1I4NxCM1GmG--25" value="0,n" style="edgeLabel;html=1;align=center;verticalAlign=middle;resizable=0;points=[];fontFamily=Helvetica;fontSize=11;fontColor=default;labelBackgroundColor=default;" parent="lSTIobcj1I4NxCM1GmG--23" vertex="1" connectable="0">
          <mxGeometry x="-0.8214" y="-1" relative="1" as="geometry">
            <mxPoint x="-1" y="-1" as="offset" />
          </mxGeometry>
        </mxCell>
        <mxCell id="lSTIobcj1I4NxCM1GmG--26" value="1,1" style="edgeLabel;html=1;align=center;verticalAlign=middle;resizable=0;points=[];fontFamily=Helvetica;fontSize=11;fontColor=default;labelBackgroundColor=default;" parent="lSTIobcj1I4NxCM1GmG--23" vertex="1" connectable="0">
          <mxGeometry x="0.8095" relative="1" as="geometry">
            <mxPoint as="offset" />
          </mxGeometry>
        </mxCell>
        <mxCell id="lSTIobcj1I4NxCM1GmG--123" value="accepter" style="edgeLabel;html=1;align=center;verticalAlign=middle;resizable=0;points=[];" parent="lSTIobcj1I4NxCM1GmG--23" vertex="1" connectable="0">
          <mxGeometry x="-0.0468" y="1" relative="1" as="geometry">
            <mxPoint x="3" as="offset" />
          </mxGeometry>
        </mxCell>
        <mxCell id="lSTIobcj1I4NxCM1GmG--27" style="edgeStyle=orthogonalEdgeStyle;shape=connector;rounded=0;orthogonalLoop=1;jettySize=auto;html=1;entryX=0;entryY=0.5;entryDx=0;entryDy=0;strokeColor=default;strokeWidth=2;align=center;verticalAlign=middle;fontFamily=Helvetica;fontSize=11;fontColor=default;labelBackgroundColor=default;startFill=0;endArrow=none;" parent="1" source="lSTIobcj1I4NxCM1GmG--35" target="lSTIobcj1I4NxCM1GmG--44" edge="1">
          <mxGeometry relative="1" as="geometry">
            <Array as="points">
              <mxPoint x="2070" y="-760" />
            </Array>
          </mxGeometry>
        </mxCell>
        <mxCell id="lSTIobcj1I4NxCM1GmG--28" value="créer" style="edgeLabel;html=1;align=center;verticalAlign=middle;resizable=0;points=[];fontFamily=Helvetica;fontSize=11;fontColor=default;labelBackgroundColor=default;" parent="lSTIobcj1I4NxCM1GmG--27" vertex="1" connectable="0">
          <mxGeometry x="0.5078" y="-1" relative="1" as="geometry">
            <mxPoint x="-3" y="-2" as="offset" />
          </mxGeometry>
        </mxCell>
        <mxCell id="lSTIobcj1I4NxCM1GmG--29" value="1,1" style="edgeLabel;html=1;align=center;verticalAlign=middle;resizable=0;points=[];fontFamily=Helvetica;fontSize=11;fontColor=default;labelBackgroundColor=default;" parent="lSTIobcj1I4NxCM1GmG--27" vertex="1" connectable="0">
          <mxGeometry x="0.8788" relative="1" as="geometry">
            <mxPoint x="-2" y="-1" as="offset" />
          </mxGeometry>
        </mxCell>
        <mxCell id="lSTIobcj1I4NxCM1GmG--30" value="0,n" style="edgeLabel;html=1;align=center;verticalAlign=middle;resizable=0;points=[];fontFamily=Helvetica;fontSize=11;fontColor=default;labelBackgroundColor=default;" parent="lSTIobcj1I4NxCM1GmG--27" vertex="1" connectable="0">
          <mxGeometry x="-0.9345" y="-1" relative="1" as="geometry">
            <mxPoint x="1" y="5" as="offset" />
          </mxGeometry>
        </mxCell>
        <mxCell id="lSTIobcj1I4NxCM1GmG--31" style="edgeStyle=orthogonalEdgeStyle;shape=connector;rounded=0;orthogonalLoop=1;jettySize=auto;html=1;entryX=0;entryY=0.5;entryDx=0;entryDy=0;strokeColor=default;strokeWidth=2;align=center;verticalAlign=middle;fontFamily=Helvetica;fontSize=11;fontColor=default;labelBackgroundColor=default;startFill=0;endArrow=none;exitX=0.5;exitY=0;exitDx=0;exitDy=0;" parent="1" source="lSTIobcj1I4NxCM1GmG--35" target="lSTIobcj1I4NxCM1GmG--90" edge="1">
          <mxGeometry relative="1" as="geometry" />
        </mxCell>
        <mxCell id="lSTIobcj1I4NxCM1GmG--32" value="1,1" style="edgeLabel;html=1;align=center;verticalAlign=middle;resizable=0;points=[];fontFamily=Helvetica;fontSize=11;fontColor=default;labelBackgroundColor=default;" parent="lSTIobcj1I4NxCM1GmG--31" vertex="1" connectable="0">
          <mxGeometry x="-0.8748" relative="1" as="geometry">
            <mxPoint y="1" as="offset" />
          </mxGeometry>
        </mxCell>
        <mxCell id="lSTIobcj1I4NxCM1GmG--33" value="appartiens" style="edgeLabel;html=1;align=center;verticalAlign=middle;resizable=0;points=[];fontFamily=Helvetica;fontSize=11;fontColor=default;labelBackgroundColor=default;" parent="lSTIobcj1I4NxCM1GmG--31" vertex="1" connectable="0">
          <mxGeometry x="0.5709" y="-2" relative="1" as="geometry">
            <mxPoint x="-21" y="29" as="offset" />
          </mxGeometry>
        </mxCell>
        <mxCell id="lSTIobcj1I4NxCM1GmG--34" value="0,n" style="edgeLabel;html=1;align=center;verticalAlign=middle;resizable=0;points=[];fontFamily=Helvetica;fontSize=11;fontColor=default;labelBackgroundColor=default;" parent="lSTIobcj1I4NxCM1GmG--31" vertex="1" connectable="0">
          <mxGeometry x="0.8885" y="2" relative="1" as="geometry">
            <mxPoint x="-1" y="1" as="offset" />
          </mxGeometry>
        </mxCell>
        <mxCell id="lSTIobcj1I4NxCM1GmG--115" style="edgeStyle=orthogonalEdgeStyle;rounded=0;orthogonalLoop=1;jettySize=auto;html=1;exitX=0.75;exitY=0;exitDx=0;exitDy=0;entryX=0.25;entryY=0;entryDx=0;entryDy=0;strokeWidth=2;endArrow=none;startFill=0;" parent="1" source="lSTIobcj1I4NxCM1GmG--35" target="lSTIobcj1I4NxCM1GmG--9" edge="1">
          <mxGeometry relative="1" as="geometry">
            <Array as="points">
              <mxPoint x="2090" y="-950" />
              <mxPoint x="2270" y="-950" />
            </Array>
          </mxGeometry>
        </mxCell>
        <mxCell id="lSTIobcj1I4NxCM1GmG--117" value="0,n" style="edgeLabel;html=1;align=center;verticalAlign=middle;resizable=0;points=[];" parent="lSTIobcj1I4NxCM1GmG--115" vertex="1" connectable="0">
          <mxGeometry x="-0.9126" y="3" relative="1" as="geometry">
            <mxPoint x="3" y="2" as="offset" />
          </mxGeometry>
        </mxCell>
        <mxCell id="lSTIobcj1I4NxCM1GmG--118" value="0,n" style="edgeLabel;html=1;align=center;verticalAlign=middle;resizable=0;points=[];" parent="lSTIobcj1I4NxCM1GmG--115" vertex="1" connectable="0">
          <mxGeometry x="0.9189" y="-1" relative="1" as="geometry">
            <mxPoint y="1" as="offset" />
          </mxGeometry>
        </mxCell>
        <mxCell id="lSTIobcj1I4NxCM1GmG--124" value="postuler" style="edgeLabel;html=1;align=center;verticalAlign=middle;resizable=0;points=[];" parent="lSTIobcj1I4NxCM1GmG--115" vertex="1" connectable="0">
          <mxGeometry x="-0.0339" relative="1" as="geometry">
            <mxPoint x="5" as="offset" />
          </mxGeometry>
        </mxCell>
        <mxCell id="eqjeGqlvOOC0cEEH_1Pv-1" style="edgeStyle=orthogonalEdgeStyle;rounded=0;orthogonalLoop=1;jettySize=auto;html=1;exitX=0.065;exitY=0.965;exitDx=0;exitDy=0;entryX=0.5;entryY=1;entryDx=0;entryDy=0;endArrow=none;startFill=0;strokeWidth=2;exitPerimeter=0;" edge="1" parent="1" source="lSTIobcj1I4NxCM1GmG--35" target="lSTIobcj1I4NxCM1GmG--89">
          <mxGeometry relative="1" as="geometry">
            <Array as="points">
              <mxPoint x="2008" y="-850" />
              <mxPoint x="1840" y="-850" />
              <mxPoint x="1840" y="-600" />
              <mxPoint x="2460" y="-600" />
            </Array>
          </mxGeometry>
        </mxCell>
        <mxCell id="eqjeGqlvOOC0cEEH_1Pv-2" value="0,n" style="edgeLabel;html=1;align=center;verticalAlign=middle;resizable=0;points=[];" vertex="1" connectable="0" parent="eqjeGqlvOOC0cEEH_1Pv-1">
          <mxGeometry x="-0.9522" y="-1" relative="1" as="geometry">
            <mxPoint x="5" y="1" as="offset" />
          </mxGeometry>
        </mxCell>
        <mxCell id="eqjeGqlvOOC0cEEH_1Pv-3" value="1,1" style="edgeLabel;html=1;align=center;verticalAlign=middle;resizable=0;points=[];" vertex="1" connectable="0" parent="eqjeGqlvOOC0cEEH_1Pv-1">
          <mxGeometry x="0.9795" y="-1" relative="1" as="geometry">
            <mxPoint as="offset" />
          </mxGeometry>
        </mxCell>
        <mxCell id="eqjeGqlvOOC0cEEH_1Pv-4" value="appartient" style="edgeLabel;html=1;align=center;verticalAlign=middle;resizable=0;points=[];" vertex="1" connectable="0" parent="eqjeGqlvOOC0cEEH_1Pv-1">
          <mxGeometry x="-0.852" y="1" relative="1" as="geometry">
            <mxPoint x="2" y="-1" as="offset" />
          </mxGeometry>
        </mxCell>
        <mxCell id="lSTIobcj1I4NxCM1GmG--35" value="USER" style="rounded=0;whiteSpace=wrap;html=1;fontFamily=Helvetica;fontSize=11;labelBackgroundColor=none;fillColor=#dae8fc;strokeColor=#6c8ebf;" parent="1" vertex="1">
          <mxGeometry x="2000" y="-900" width="120" height="40" as="geometry" />
        </mxCell>
        <mxCell id="lSTIobcj1I4NxCM1GmG--36" style="edgeStyle=none;shape=connector;rounded=0;orthogonalLoop=1;jettySize=auto;html=1;entryX=0.5;entryY=0;entryDx=0;entryDy=0;strokeColor=default;strokeWidth=2;align=center;verticalAlign=middle;fontFamily=Helvetica;fontSize=11;fontColor=default;labelBackgroundColor=default;startFill=0;endArrow=none;" parent="1" source="lSTIobcj1I4NxCM1GmG--44" target="lSTIobcj1I4NxCM1GmG--63" edge="1">
          <mxGeometry relative="1" as="geometry" />
        </mxCell>
        <mxCell id="lSTIobcj1I4NxCM1GmG--37" value="1,n" style="edgeLabel;html=1;align=center;verticalAlign=middle;resizable=0;points=[];fontFamily=Helvetica;fontSize=11;fontColor=default;labelBackgroundColor=default;" parent="lSTIobcj1I4NxCM1GmG--36" vertex="1" connectable="0">
          <mxGeometry x="-0.625" y="3" relative="1" as="geometry">
            <mxPoint x="-4" y="-5" as="offset" />
          </mxGeometry>
        </mxCell>
        <mxCell id="lSTIobcj1I4NxCM1GmG--38" value="1,1" style="edgeLabel;html=1;align=center;verticalAlign=middle;resizable=0;points=[];fontFamily=Helvetica;fontSize=11;fontColor=default;labelBackgroundColor=default;" parent="lSTIobcj1I4NxCM1GmG--36" vertex="1" connectable="0">
          <mxGeometry x="0.7098" y="2" relative="1" as="geometry">
            <mxPoint x="-2" y="2" as="offset" />
          </mxGeometry>
        </mxCell>
        <mxCell id="lSTIobcj1I4NxCM1GmG--39" value="nécessite" style="edgeLabel;html=1;align=center;verticalAlign=middle;resizable=0;points=[];fontFamily=Helvetica;fontSize=11;fontColor=default;labelBackgroundColor=default;" parent="lSTIobcj1I4NxCM1GmG--36" vertex="1" connectable="0">
          <mxGeometry x="0.0793" relative="1" as="geometry">
            <mxPoint x="1" y="1" as="offset" />
          </mxGeometry>
        </mxCell>
        <mxCell id="lSTIobcj1I4NxCM1GmG--40" style="edgeStyle=orthogonalEdgeStyle;shape=connector;rounded=0;orthogonalLoop=1;jettySize=auto;html=1;entryX=0.5;entryY=0;entryDx=0;entryDy=0;strokeColor=default;strokeWidth=2;align=center;verticalAlign=middle;fontFamily=Helvetica;fontSize=11;fontColor=default;labelBackgroundColor=default;startFill=0;endArrow=none;" parent="1" source="lSTIobcj1I4NxCM1GmG--44" target="lSTIobcj1I4NxCM1GmG--84" edge="1">
          <mxGeometry relative="1" as="geometry" />
        </mxCell>
        <mxCell id="lSTIobcj1I4NxCM1GmG--41" value="0,n" style="edgeLabel;html=1;align=center;verticalAlign=middle;resizable=0;points=[];fontFamily=Helvetica;fontSize=11;fontColor=default;labelBackgroundColor=default;" parent="lSTIobcj1I4NxCM1GmG--40" vertex="1" connectable="0">
          <mxGeometry x="-0.8593" y="-2" relative="1" as="geometry">
            <mxPoint x="-4" y="-3" as="offset" />
          </mxGeometry>
        </mxCell>
        <mxCell id="lSTIobcj1I4NxCM1GmG--42" value="nécessite" style="edgeLabel;html=1;align=center;verticalAlign=middle;resizable=0;points=[];fontFamily=Helvetica;fontSize=11;fontColor=default;labelBackgroundColor=default;" parent="lSTIobcj1I4NxCM1GmG--40" vertex="1" connectable="0">
          <mxGeometry x="-0.2523" y="-1" relative="1" as="geometry">
            <mxPoint x="25" y="63" as="offset" />
          </mxGeometry>
        </mxCell>
        <mxCell id="lSTIobcj1I4NxCM1GmG--43" value="1,1" style="edgeLabel;html=1;align=center;verticalAlign=middle;resizable=0;points=[];fontFamily=Helvetica;fontSize=11;fontColor=default;labelBackgroundColor=default;" parent="lSTIobcj1I4NxCM1GmG--40" vertex="1" connectable="0">
          <mxGeometry x="0.8846" relative="1" as="geometry">
            <mxPoint x="-1" y="1" as="offset" />
          </mxGeometry>
        </mxCell>
        <mxCell id="lSTIobcj1I4NxCM1GmG--44" value="SERVICE" style="rounded=0;whiteSpace=wrap;html=1;fontFamily=Helvetica;fontSize=11;labelBackgroundColor=none;fillColor=#dae8fc;strokeColor=#6c8ebf;" parent="1" vertex="1">
          <mxGeometry x="2120" y="-780" width="120" height="40" as="geometry" />
        </mxCell>
        <mxCell id="lSTIobcj1I4NxCM1GmG--45" style="edgeStyle=orthogonalEdgeStyle;shape=connector;rounded=0;orthogonalLoop=1;jettySize=auto;html=1;strokeColor=default;strokeWidth=2;align=center;verticalAlign=middle;fontFamily=Helvetica;fontSize=11;fontColor=default;labelBackgroundColor=default;startFill=0;endArrow=none;exitX=0.75;exitY=0;exitDx=0;exitDy=0;" parent="1" source="lSTIobcj1I4NxCM1GmG--57" target="lSTIobcj1I4NxCM1GmG--35" edge="1">
          <mxGeometry relative="1" as="geometry">
            <Array as="points">
              <mxPoint x="1970" y="-816" />
              <mxPoint x="2020" y="-816" />
            </Array>
          </mxGeometry>
        </mxCell>
        <mxCell id="lSTIobcj1I4NxCM1GmG--46" value="soumet" style="edgeLabel;html=1;align=center;verticalAlign=middle;resizable=0;points=[];fontFamily=Helvetica;fontSize=11;fontColor=default;labelBackgroundColor=default;" parent="lSTIobcj1I4NxCM1GmG--45" vertex="1" connectable="0">
          <mxGeometry x="0.0696" y="2" relative="1" as="geometry">
            <mxPoint x="-9" y="1" as="offset" />
          </mxGeometry>
        </mxCell>
        <mxCell id="lSTIobcj1I4NxCM1GmG--47" value="0,n" style="edgeLabel;html=1;align=center;verticalAlign=middle;resizable=0;points=[];fontFamily=Helvetica;fontSize=11;fontColor=default;labelBackgroundColor=default;" parent="lSTIobcj1I4NxCM1GmG--45" vertex="1" connectable="0">
          <mxGeometry x="0.9244" relative="1" as="geometry">
            <mxPoint y="5" as="offset" />
          </mxGeometry>
        </mxCell>
        <mxCell id="lSTIobcj1I4NxCM1GmG--48" value="1,1" style="edgeLabel;html=1;align=center;verticalAlign=middle;resizable=0;points=[];fontFamily=Helvetica;fontSize=11;fontColor=default;labelBackgroundColor=default;" parent="lSTIobcj1I4NxCM1GmG--45" vertex="1" connectable="0">
          <mxGeometry x="-0.8348" y="-1" relative="1" as="geometry">
            <mxPoint x="-1" y="1" as="offset" />
          </mxGeometry>
        </mxCell>
        <mxCell id="lSTIobcj1I4NxCM1GmG--49" style="edgeStyle=orthogonalEdgeStyle;shape=connector;rounded=0;orthogonalLoop=1;jettySize=auto;html=1;strokeColor=default;strokeWidth=2;align=center;verticalAlign=middle;fontFamily=Helvetica;fontSize=11;fontColor=default;labelBackgroundColor=default;startFill=0;endArrow=none;exitX=1;exitY=0.5;exitDx=0;exitDy=0;" parent="1" source="lSTIobcj1I4NxCM1GmG--57" edge="1">
          <mxGeometry relative="1" as="geometry">
            <mxPoint x="1980" y="-760" as="sourcePoint" />
            <mxPoint x="2050" y="-860" as="targetPoint" />
            <Array as="points">
              <mxPoint x="2050" y="-760" />
              <mxPoint x="2050" y="-860" />
            </Array>
          </mxGeometry>
        </mxCell>
        <mxCell id="lSTIobcj1I4NxCM1GmG--50" value="valide" style="edgeLabel;html=1;align=center;verticalAlign=middle;resizable=0;points=[];fontFamily=Helvetica;fontSize=11;fontColor=default;labelBackgroundColor=default;" parent="lSTIobcj1I4NxCM1GmG--49" vertex="1" connectable="0">
          <mxGeometry x="-0.4259" relative="1" as="geometry">
            <mxPoint x="-2" y="-1" as="offset" />
          </mxGeometry>
        </mxCell>
        <mxCell id="lSTIobcj1I4NxCM1GmG--51" value="0,n" style="edgeLabel;html=1;align=center;verticalAlign=middle;resizable=0;points=[];fontFamily=Helvetica;fontSize=11;fontColor=default;labelBackgroundColor=default;" parent="lSTIobcj1I4NxCM1GmG--49" vertex="1" connectable="0">
          <mxGeometry x="0.8648" y="4" relative="1" as="geometry">
            <mxPoint x="4" y="-1" as="offset" />
          </mxGeometry>
        </mxCell>
        <mxCell id="lSTIobcj1I4NxCM1GmG--52" value="1,1" style="edgeLabel;html=1;align=center;verticalAlign=middle;resizable=0;points=[];fontFamily=Helvetica;fontSize=11;fontColor=default;labelBackgroundColor=default;" parent="lSTIobcj1I4NxCM1GmG--49" vertex="1" connectable="0">
          <mxGeometry x="-0.8546" relative="1" as="geometry">
            <mxPoint x="-1" y="-1" as="offset" />
          </mxGeometry>
        </mxCell>
        <mxCell id="lSTIobcj1I4NxCM1GmG--53" style="edgeStyle=orthogonalEdgeStyle;shape=connector;rounded=0;orthogonalLoop=1;jettySize=auto;html=1;exitX=0.75;exitY=1;exitDx=0;exitDy=0;entryX=0.25;entryY=1;entryDx=0;entryDy=0;strokeColor=default;strokeWidth=2;align=center;verticalAlign=middle;fontFamily=Helvetica;fontSize=11;fontColor=default;labelBackgroundColor=default;startFill=0;endArrow=none;" parent="1" source="lSTIobcj1I4NxCM1GmG--57" target="lSTIobcj1I4NxCM1GmG--44" edge="1">
          <mxGeometry relative="1" as="geometry">
            <Array as="points">
              <mxPoint x="1970" y="-706" />
              <mxPoint x="2150" y="-706" />
            </Array>
          </mxGeometry>
        </mxCell>
        <mxCell id="lSTIobcj1I4NxCM1GmG--54" value="concerne" style="edgeLabel;html=1;align=center;verticalAlign=middle;resizable=0;points=[];fontFamily=Helvetica;fontSize=11;fontColor=default;labelBackgroundColor=default;" parent="lSTIobcj1I4NxCM1GmG--53" vertex="1" connectable="0">
          <mxGeometry x="-0.0449" y="-2" relative="1" as="geometry">
            <mxPoint x="4" y="-3" as="offset" />
          </mxGeometry>
        </mxCell>
        <mxCell id="lSTIobcj1I4NxCM1GmG--55" value="1,1" style="edgeLabel;html=1;align=center;verticalAlign=middle;resizable=0;points=[];fontFamily=Helvetica;fontSize=11;fontColor=default;labelBackgroundColor=default;" parent="lSTIobcj1I4NxCM1GmG--53" vertex="1" connectable="0">
          <mxGeometry x="-0.9176" y="-3" relative="1" as="geometry">
            <mxPoint x="2" as="offset" />
          </mxGeometry>
        </mxCell>
        <mxCell id="lSTIobcj1I4NxCM1GmG--56" value="1,n" style="edgeLabel;html=1;align=center;verticalAlign=middle;resizable=0;points=[];fontFamily=Helvetica;fontSize=11;fontColor=default;labelBackgroundColor=default;" parent="lSTIobcj1I4NxCM1GmG--53" vertex="1" connectable="0">
          <mxGeometry x="0.9106" relative="1" as="geometry">
            <mxPoint x="-1" as="offset" />
          </mxGeometry>
        </mxCell>
        <mxCell id="lSTIobcj1I4NxCM1GmG--57" value="DEMANDE" style="rounded=0;whiteSpace=wrap;html=1;fontFamily=Helvetica;fontSize=11;labelBackgroundColor=none;fillColor=#dae8fc;strokeColor=#6c8ebf;" parent="1" vertex="1">
          <mxGeometry x="1880" y="-780" width="120" height="40" as="geometry" />
        </mxCell>
        <mxCell id="lSTIobcj1I4NxCM1GmG--58" style="edgeStyle=none;shape=connector;rounded=0;orthogonalLoop=1;jettySize=auto;html=1;strokeColor=default;strokeWidth=2;align=center;verticalAlign=middle;fontFamily=Helvetica;fontSize=11;fontColor=default;labelBackgroundColor=default;startFill=0;endArrow=none;" parent="1" source="lSTIobcj1I4NxCM1GmG--62" target="lSTIobcj1I4NxCM1GmG--57" edge="1">
          <mxGeometry relative="1" as="geometry" />
        </mxCell>
        <mxCell id="lSTIobcj1I4NxCM1GmG--59" value="0,n" style="edgeLabel;html=1;align=center;verticalAlign=middle;resizable=0;points=[];fontFamily=Helvetica;fontSize=11;fontColor=default;labelBackgroundColor=default;" parent="lSTIobcj1I4NxCM1GmG--58" vertex="1" connectable="0">
          <mxGeometry x="0.65" y="2" relative="1" as="geometry">
            <mxPoint x="2" y="-3" as="offset" />
          </mxGeometry>
        </mxCell>
        <mxCell id="lSTIobcj1I4NxCM1GmG--60" value="1,1" style="edgeLabel;html=1;align=center;verticalAlign=middle;resizable=0;points=[];fontFamily=Helvetica;fontSize=11;fontColor=default;labelBackgroundColor=default;" parent="lSTIobcj1I4NxCM1GmG--58" vertex="1" connectable="0">
          <mxGeometry x="-0.7098" y="-1" relative="1" as="geometry">
            <mxPoint x="-1" y="2" as="offset" />
          </mxGeometry>
        </mxCell>
        <mxCell id="lSTIobcj1I4NxCM1GmG--61" value="contient" style="edgeLabel;html=1;align=center;verticalAlign=middle;resizable=0;points=[];fontFamily=Helvetica;fontSize=11;fontColor=default;labelBackgroundColor=default;" parent="lSTIobcj1I4NxCM1GmG--58" vertex="1" connectable="0">
          <mxGeometry x="-0.0576" y="-1" relative="1" as="geometry">
            <mxPoint x="-1" y="2" as="offset" />
          </mxGeometry>
        </mxCell>
        <mxCell id="lSTIobcj1I4NxCM1GmG--62" value="DOCS_DEMANDE" style="rounded=0;whiteSpace=wrap;html=1;fontFamily=Helvetica;fontSize=11;labelBackgroundColor=none;fillColor=#dae8fc;strokeColor=#6c8ebf;" parent="1" vertex="1">
          <mxGeometry x="1880" y="-660" width="120" height="40" as="geometry" />
        </mxCell>
        <mxCell id="lSTIobcj1I4NxCM1GmG--63" value="DOCS_SERVICE" style="rounded=0;whiteSpace=wrap;html=1;fontFamily=Helvetica;fontSize=11;labelBackgroundColor=none;fillColor=#dae8fc;strokeColor=#6c8ebf;" parent="1" vertex="1">
          <mxGeometry x="2120" y="-660" width="120" height="40" as="geometry" />
        </mxCell>
        <mxCell id="lSTIobcj1I4NxCM1GmG--64" style="edgeStyle=none;shape=connector;rounded=0;orthogonalLoop=1;jettySize=auto;html=1;entryX=0;entryY=0.5;entryDx=0;entryDy=0;strokeColor=default;strokeWidth=2;align=center;verticalAlign=middle;fontFamily=Helvetica;fontSize=11;fontColor=default;labelBackgroundColor=default;startFill=0;endArrow=none;" parent="1" source="lSTIobcj1I4NxCM1GmG--68" target="lSTIobcj1I4NxCM1GmG--35" edge="1">
          <mxGeometry relative="1" as="geometry" />
        </mxCell>
        <mxCell id="lSTIobcj1I4NxCM1GmG--65" value="préfère" style="edgeLabel;html=1;align=center;verticalAlign=middle;resizable=0;points=[];fontFamily=Helvetica;fontSize=11;fontColor=default;labelBackgroundColor=default;" parent="lSTIobcj1I4NxCM1GmG--64" vertex="1" connectable="0">
          <mxGeometry x="-0.168" y="2" relative="1" as="geometry">
            <mxPoint x="6" y="1" as="offset" />
          </mxGeometry>
        </mxCell>
        <mxCell id="lSTIobcj1I4NxCM1GmG--67" value="0,n" style="edgeLabel;html=1;align=center;verticalAlign=middle;resizable=0;points=[];fontFamily=Helvetica;fontSize=11;fontColor=default;labelBackgroundColor=default;" parent="lSTIobcj1I4NxCM1GmG--64" vertex="1" connectable="0">
          <mxGeometry x="-0.7061" y="1" relative="1" as="geometry">
            <mxPoint x="-8" as="offset" />
          </mxGeometry>
        </mxCell>
        <mxCell id="lSTIobcj1I4NxCM1GmG--68" value="LANGUE" style="rounded=0;whiteSpace=wrap;html=1;fontFamily=Helvetica;fontSize=11;labelBackgroundColor=none;fillColor=#dae8fc;strokeColor=#6c8ebf;" parent="1" vertex="1">
          <mxGeometry x="1760" y="-900" width="120" height="40" as="geometry" />
        </mxCell>
        <mxCell id="lSTIobcj1I4NxCM1GmG--69" style="edgeStyle=none;shape=connector;rounded=0;orthogonalLoop=1;jettySize=auto;html=1;strokeColor=default;strokeWidth=2;align=center;verticalAlign=middle;fontFamily=Helvetica;fontSize=11;fontColor=default;labelBackgroundColor=default;startFill=0;endArrow=none;entryX=1;entryY=1;entryDx=0;entryDy=0;exitX=0;exitY=0;exitDx=0;exitDy=0;" parent="1" source="lSTIobcj1I4NxCM1GmG--73" target="lSTIobcj1I4NxCM1GmG--9" edge="1">
          <mxGeometry relative="1" as="geometry" />
        </mxCell>
        <mxCell id="lSTIobcj1I4NxCM1GmG--70" value="0,n" style="edgeLabel;html=1;align=center;verticalAlign=middle;resizable=0;points=[];fontFamily=Helvetica;fontSize=11;fontColor=default;labelBackgroundColor=default;" parent="lSTIobcj1I4NxCM1GmG--69" vertex="1" connectable="0">
          <mxGeometry x="0.7479" y="1" relative="1" as="geometry">
            <mxPoint x="-3" y="-5" as="offset" />
          </mxGeometry>
        </mxCell>
        <mxCell id="lSTIobcj1I4NxCM1GmG--71" value="concerne" style="edgeLabel;html=1;align=center;verticalAlign=middle;resizable=0;points=[];fontFamily=Helvetica;fontSize=11;fontColor=default;labelBackgroundColor=default;" parent="lSTIobcj1I4NxCM1GmG--69" vertex="1" connectable="0">
          <mxGeometry x="0.042" relative="1" as="geometry">
            <mxPoint as="offset" />
          </mxGeometry>
        </mxCell>
        <mxCell id="lSTIobcj1I4NxCM1GmG--72" value="1,1" style="edgeLabel;html=1;align=center;verticalAlign=middle;resizable=0;points=[];fontFamily=Helvetica;fontSize=11;fontColor=default;labelBackgroundColor=default;" parent="lSTIobcj1I4NxCM1GmG--69" vertex="1" connectable="0">
          <mxGeometry x="-0.7764" y="-1" relative="1" as="geometry">
            <mxPoint x="-1" y="2" as="offset" />
          </mxGeometry>
        </mxCell>
        <mxCell id="lSTIobcj1I4NxCM1GmG--73" value="LITIGE" style="rounded=0;whiteSpace=wrap;html=1;fontFamily=Helvetica;fontSize=11;labelBackgroundColor=none;fillColor=#dae8fc;strokeColor=#6c8ebf;" parent="1" vertex="1">
          <mxGeometry x="2460" y="-820" width="120" height="40" as="geometry" />
        </mxCell>
        <mxCell id="lSTIobcj1I4NxCM1GmG--74" style="edgeStyle=none;shape=connector;rounded=0;orthogonalLoop=1;jettySize=auto;html=1;entryX=1;entryY=0;entryDx=0;entryDy=0;strokeColor=default;strokeWidth=2;align=center;verticalAlign=middle;fontFamily=Helvetica;fontSize=11;fontColor=default;labelBackgroundColor=default;startFill=0;endArrow=none;exitX=0;exitY=1;exitDx=0;exitDy=0;" parent="1" source="lSTIobcj1I4NxCM1GmG--82" target="lSTIobcj1I4NxCM1GmG--9" edge="1">
          <mxGeometry relative="1" as="geometry" />
        </mxCell>
        <mxCell id="lSTIobcj1I4NxCM1GmG--75" value="0,n" style="edgeLabel;html=1;align=center;verticalAlign=middle;resizable=0;points=[];fontFamily=Helvetica;fontSize=11;fontColor=default;labelBackgroundColor=default;" parent="lSTIobcj1I4NxCM1GmG--74" vertex="1" connectable="0">
          <mxGeometry x="0.63" relative="1" as="geometry">
            <mxPoint x="-9" y="4" as="offset" />
          </mxGeometry>
        </mxCell>
        <mxCell id="lSTIobcj1I4NxCM1GmG--76" value="appartient" style="edgeLabel;html=1;align=center;verticalAlign=middle;resizable=0;points=[];fontFamily=Helvetica;fontSize=11;fontColor=default;labelBackgroundColor=default;" parent="lSTIobcj1I4NxCM1GmG--74" vertex="1" connectable="0">
          <mxGeometry x="-0.0735" relative="1" as="geometry">
            <mxPoint x="-3" y="1" as="offset" />
          </mxGeometry>
        </mxCell>
        <mxCell id="lSTIobcj1I4NxCM1GmG--77" value="1,1" style="edgeLabel;html=1;align=center;verticalAlign=middle;resizable=0;points=[];fontFamily=Helvetica;fontSize=11;fontColor=default;labelBackgroundColor=default;" parent="lSTIobcj1I4NxCM1GmG--74" vertex="1" connectable="0">
          <mxGeometry x="-0.5691" y="1" relative="1" as="geometry">
            <mxPoint x="10" y="-9" as="offset" />
          </mxGeometry>
        </mxCell>
        <mxCell id="lSTIobcj1I4NxCM1GmG--78" style="edgeStyle=orthogonalEdgeStyle;shape=connector;rounded=0;orthogonalLoop=1;jettySize=auto;html=1;entryX=1;entryY=0.5;entryDx=0;entryDy=0;strokeColor=default;strokeWidth=2;align=center;verticalAlign=middle;fontFamily=Helvetica;fontSize=11;fontColor=default;labelBackgroundColor=default;startFill=0;endArrow=none;exitX=1;exitY=0.5;exitDx=0;exitDy=0;" parent="1" source="lSTIobcj1I4NxCM1GmG--82" target="lSTIobcj1I4NxCM1GmG--83" edge="1">
          <mxGeometry relative="1" as="geometry">
            <Array as="points">
              <mxPoint x="2602" y="-960" />
              <mxPoint x="2602" y="-1040" />
            </Array>
          </mxGeometry>
        </mxCell>
        <mxCell id="lSTIobcj1I4NxCM1GmG--79" value="stock" style="edgeLabel;html=1;align=center;verticalAlign=middle;resizable=0;points=[];fontFamily=Helvetica;fontSize=11;fontColor=default;labelBackgroundColor=default;" parent="lSTIobcj1I4NxCM1GmG--78" vertex="1" connectable="0">
          <mxGeometry x="-0.0082" y="-2" relative="1" as="geometry">
            <mxPoint x="-2" y="4" as="offset" />
          </mxGeometry>
        </mxCell>
        <mxCell id="lSTIobcj1I4NxCM1GmG--80" value="0,n" style="edgeLabel;html=1;align=center;verticalAlign=middle;resizable=0;points=[];fontFamily=Helvetica;fontSize=11;fontColor=default;labelBackgroundColor=default;" parent="lSTIobcj1I4NxCM1GmG--78" vertex="1" connectable="0">
          <mxGeometry x="-0.6384" relative="1" as="geometry">
            <mxPoint x="-13" y="-1" as="offset" />
          </mxGeometry>
        </mxCell>
        <mxCell id="lSTIobcj1I4NxCM1GmG--81" value="0,n" style="edgeLabel;html=1;align=center;verticalAlign=middle;resizable=0;points=[];fontFamily=Helvetica;fontSize=11;fontColor=default;labelBackgroundColor=default;" parent="lSTIobcj1I4NxCM1GmG--78" vertex="1" connectable="0">
          <mxGeometry x="0.7283" y="2" relative="1" as="geometry">
            <mxPoint x="-8" y="-4" as="offset" />
          </mxGeometry>
        </mxCell>
        <mxCell id="lSTIobcj1I4NxCM1GmG--82" value="COLIS" style="rounded=0;whiteSpace=wrap;html=1;fontFamily=Helvetica;fontSize=11;labelBackgroundColor=none;fillColor=#dae8fc;strokeColor=#6c8ebf;" parent="1" vertex="1">
          <mxGeometry x="2460" y="-980" width="120" height="40" as="geometry" />
        </mxCell>
        <mxCell id="lSTIobcj1I4NxCM1GmG--83" value="ENTREPOT" style="rounded=0;whiteSpace=wrap;html=1;fontFamily=Helvetica;fontSize=11;labelBackgroundColor=none;fillColor=#dae8fc;strokeColor=#6c8ebf;" parent="1" vertex="1">
          <mxGeometry x="2460" y="-1060" width="120" height="40" as="geometry" />
        </mxCell>
        <mxCell id="lSTIobcj1I4NxCM1GmG--84" value="MATERIEL" style="rounded=0;whiteSpace=wrap;html=1;fontFamily=Helvetica;fontSize=11;labelBackgroundColor=none;fillColor=#dae8fc;strokeColor=#6c8ebf;" parent="1" vertex="1">
          <mxGeometry x="2280" y="-661" width="120" height="40" as="geometry" />
        </mxCell>
        <mxCell id="lSTIobcj1I4NxCM1GmG--85" style="edgeStyle=none;shape=connector;rounded=0;orthogonalLoop=1;jettySize=auto;html=1;entryX=0.75;entryY=1;entryDx=0;entryDy=0;strokeColor=default;strokeWidth=2;align=center;verticalAlign=middle;fontFamily=Helvetica;fontSize=11;fontColor=default;labelBackgroundColor=default;startFill=0;endArrow=none;" parent="1" source="lSTIobcj1I4NxCM1GmG--89" target="lSTIobcj1I4NxCM1GmG--9" edge="1">
          <mxGeometry relative="1" as="geometry" />
        </mxCell>
        <mxCell id="lSTIobcj1I4NxCM1GmG--86" value="concerne" style="edgeLabel;html=1;align=center;verticalAlign=middle;resizable=0;points=[];fontFamily=Helvetica;fontSize=11;fontColor=default;labelBackgroundColor=default;" parent="lSTIobcj1I4NxCM1GmG--85" vertex="1" connectable="0">
          <mxGeometry x="-0.0005" y="2" relative="1" as="geometry">
            <mxPoint x="1" y="-2" as="offset" />
          </mxGeometry>
        </mxCell>
        <mxCell id="lSTIobcj1I4NxCM1GmG--87" value="1,1" style="edgeLabel;html=1;align=center;verticalAlign=middle;resizable=0;points=[];fontFamily=Helvetica;fontSize=11;fontColor=default;labelBackgroundColor=default;" parent="lSTIobcj1I4NxCM1GmG--85" vertex="1" connectable="0">
          <mxGeometry x="-0.7872" y="-1" relative="1" as="geometry">
            <mxPoint x="5" y="3" as="offset" />
          </mxGeometry>
        </mxCell>
        <mxCell id="lSTIobcj1I4NxCM1GmG--88" value="0,n" style="edgeLabel;html=1;align=center;verticalAlign=middle;resizable=0;points=[];fontFamily=Helvetica;fontSize=11;fontColor=default;labelBackgroundColor=default;" parent="lSTIobcj1I4NxCM1GmG--85" vertex="1" connectable="0">
          <mxGeometry x="0.7237" y="-2" relative="1" as="geometry">
            <mxPoint x="-11" y="-7" as="offset" />
          </mxGeometry>
        </mxCell>
        <mxCell id="lSTIobcj1I4NxCM1GmG--89" value="AVIS" style="rounded=0;whiteSpace=wrap;html=1;fontFamily=Helvetica;fontSize=11;labelBackgroundColor=none;fillColor=#dae8fc;strokeColor=#6c8ebf;" parent="1" vertex="1">
          <mxGeometry x="2400" y="-740" width="120" height="40" as="geometry" />
        </mxCell>
        <mxCell id="lSTIobcj1I4NxCM1GmG--90" value="ABONNEMENT" style="rounded=0;whiteSpace=wrap;html=1;fontFamily=Helvetica;fontSize=11;labelBackgroundColor=none;fillColor=#dae8fc;strokeColor=#6c8ebf;" parent="1" vertex="1">
          <mxGeometry x="2121" y="-1040" width="120" height="40" as="geometry" />
        </mxCell>
        <mxCell id="lSTIobcj1I4NxCM1GmG--91" value="" style="edgeStyle=orthogonalEdgeStyle;shape=connector;rounded=0;orthogonalLoop=1;jettySize=auto;html=1;strokeColor=default;strokeWidth=2;align=center;verticalAlign=middle;fontFamily=Helvetica;fontSize=11;fontColor=default;labelBackgroundColor=default;startFill=0;endArrow=none;exitX=0.25;exitY=0;exitDx=0;exitDy=0;" parent="1" source="lSTIobcj1I4NxCM1GmG--44" target="lSTIobcj1I4NxCM1GmG--35" edge="1">
          <mxGeometry x="0.0033" relative="1" as="geometry">
            <mxPoint x="1950" y="-770" as="sourcePoint" />
            <mxPoint x="2030" y="-850" as="targetPoint" />
            <Array as="points">
              <mxPoint x="2150" y="-816" />
              <mxPoint x="2100" y="-816" />
            </Array>
            <mxPoint as="offset" />
          </mxGeometry>
        </mxCell>
        <mxCell id="lSTIobcj1I4NxCM1GmG--92" value="0,n" style="edgeLabel;html=1;align=center;verticalAlign=middle;resizable=0;points=[];fontFamily=Helvetica;fontSize=11;fontColor=default;labelBackgroundColor=default;" parent="lSTIobcj1I4NxCM1GmG--91" vertex="1" connectable="0">
          <mxGeometry x="0.8441" relative="1" as="geometry">
            <mxPoint as="offset" />
          </mxGeometry>
        </mxCell>
        <mxCell id="lSTIobcj1I4NxCM1GmG--93" value="0,n" style="edgeLabel;html=1;align=center;verticalAlign=middle;resizable=0;points=[];fontFamily=Helvetica;fontSize=11;fontColor=default;labelBackgroundColor=default;" parent="lSTIobcj1I4NxCM1GmG--91" vertex="1" connectable="0">
          <mxGeometry x="-0.8214" relative="1" as="geometry">
            <mxPoint y="2" as="offset" />
          </mxGeometry>
        </mxCell>
        <mxCell id="lSTIobcj1I4NxCM1GmG--94" value="habiliter" style="edgeLabel;html=1;align=center;verticalAlign=middle;resizable=0;points=[];fontFamily=Helvetica;fontSize=11;fontColor=default;labelBackgroundColor=default;" parent="lSTIobcj1I4NxCM1GmG--91" vertex="1" connectable="0">
          <mxGeometry x="0.0294" y="-3" relative="1" as="geometry">
            <mxPoint x="6" y="2" as="offset" />
          </mxGeometry>
        </mxCell>
        <mxCell id="lSTIobcj1I4NxCM1GmG--95" style="edgeStyle=orthogonalEdgeStyle;shape=connector;rounded=0;orthogonalLoop=1;jettySize=auto;html=1;strokeColor=default;strokeWidth=2;align=center;verticalAlign=middle;fontFamily=Helvetica;fontSize=11;fontColor=default;labelBackgroundColor=default;startFill=0;endArrow=none;exitX=0.75;exitY=0;exitDx=0;exitDy=0;entryX=0.5;entryY=1;entryDx=0;entryDy=0;" parent="1" source="lSTIobcj1I4NxCM1GmG--44" target="lSTIobcj1I4NxCM1GmG--9" edge="1">
          <mxGeometry relative="1" as="geometry">
            <mxPoint x="2190" y="-770" as="sourcePoint" />
            <mxPoint x="2110" y="-850" as="targetPoint" />
            <Array as="points">
              <mxPoint x="2210" y="-820" />
              <mxPoint x="2300" y="-820" />
            </Array>
          </mxGeometry>
        </mxCell>
        <mxCell id="lSTIobcj1I4NxCM1GmG--96" value="concerne" style="edgeLabel;html=1;align=center;verticalAlign=middle;resizable=0;points=[];fontFamily=Helvetica;fontSize=11;fontColor=default;labelBackgroundColor=default;" parent="lSTIobcj1I4NxCM1GmG--95" vertex="1" connectable="0">
          <mxGeometry relative="1" as="geometry">
            <mxPoint x="2" y="-1" as="offset" />
          </mxGeometry>
        </mxCell>
        <mxCell id="lSTIobcj1I4NxCM1GmG--97" value="1,1" style="edgeLabel;html=1;align=center;verticalAlign=middle;resizable=0;points=[];fontFamily=Helvetica;fontSize=11;fontColor=default;labelBackgroundColor=default;" parent="lSTIobcj1I4NxCM1GmG--95" vertex="1" connectable="0">
          <mxGeometry x="0.8773" y="-1" relative="1" as="geometry">
            <mxPoint x="-1" y="-2" as="offset" />
          </mxGeometry>
        </mxCell>
        <mxCell id="lSTIobcj1I4NxCM1GmG--98" value="0,n" style="edgeLabel;html=1;align=center;verticalAlign=middle;resizable=0;points=[];fontFamily=Helvetica;fontSize=11;fontColor=default;labelBackgroundColor=default;" parent="lSTIobcj1I4NxCM1GmG--95" vertex="1" connectable="0">
          <mxGeometry x="-0.879" y="1" relative="1" as="geometry">
            <mxPoint x="1" as="offset" />
          </mxGeometry>
        </mxCell>
        <mxCell id="lSTIobcj1I4NxCM1GmG--99" style="shape=connector;rounded=0;orthogonalLoop=1;jettySize=auto;html=1;strokeColor=default;strokeWidth=2;align=center;verticalAlign=middle;fontFamily=Helvetica;fontSize=11;fontColor=default;labelBackgroundColor=default;startFill=0;endArrow=none;entryX=0;entryY=0;entryDx=0;entryDy=0;exitX=1;exitY=1;exitDx=0;exitDy=0;" parent="1" source="lSTIobcj1I4NxCM1GmG--103" target="lSTIobcj1I4NxCM1GmG--35" edge="1">
          <mxGeometry relative="1" as="geometry">
            <mxPoint x="2030" y="-906" as="targetPoint" />
          </mxGeometry>
        </mxCell>
        <mxCell id="lSTIobcj1I4NxCM1GmG--100" value="identifie" style="edgeLabel;html=1;align=center;verticalAlign=middle;resizable=0;points=[];fontFamily=Helvetica;fontSize=11;fontColor=default;labelBackgroundColor=default;" parent="lSTIobcj1I4NxCM1GmG--99" vertex="1" connectable="0">
          <mxGeometry x="-0.0242" y="-2" relative="1" as="geometry">
            <mxPoint x="1" y="-2" as="offset" />
          </mxGeometry>
        </mxCell>
        <mxCell id="lSTIobcj1I4NxCM1GmG--101" value="0,1" style="edgeLabel;html=1;align=center;verticalAlign=middle;resizable=0;points=[];fontFamily=Helvetica;fontSize=11;fontColor=default;labelBackgroundColor=default;" parent="lSTIobcj1I4NxCM1GmG--99" vertex="1" connectable="0">
          <mxGeometry x="0.843" y="-1" relative="1" as="geometry">
            <mxPoint x="-3" y="-1" as="offset" />
          </mxGeometry>
        </mxCell>
        <mxCell id="lSTIobcj1I4NxCM1GmG--102" value="0,1" style="edgeLabel;html=1;align=center;verticalAlign=middle;resizable=0;points=[];fontFamily=Helvetica;fontSize=11;fontColor=default;labelBackgroundColor=default;" parent="lSTIobcj1I4NxCM1GmG--99" vertex="1" connectable="0">
          <mxGeometry x="-0.8387" y="1" relative="1" as="geometry">
            <mxPoint x="1" as="offset" />
          </mxGeometry>
        </mxCell>
        <mxCell id="lSTIobcj1I4NxCM1GmG--103" value="NFC" style="rounded=0;whiteSpace=wrap;html=1;fontFamily=Helvetica;fontSize=11;labelBackgroundColor=none;fillColor=#dae8fc;strokeColor=#6c8ebf;" parent="1" vertex="1">
          <mxGeometry x="1786" y="-980" width="120" height="40" as="geometry" />
        </mxCell>
        <mxCell id="lSTIobcj1I4NxCM1GmG--104" style="edgeStyle=orthogonalEdgeStyle;shape=connector;rounded=0;orthogonalLoop=1;jettySize=auto;html=1;entryX=0.25;entryY=0;entryDx=0;entryDy=0;strokeColor=default;strokeWidth=2;align=center;verticalAlign=middle;fontFamily=Helvetica;fontSize=11;fontColor=default;labelBackgroundColor=default;startFill=0;endArrow=none;exitX=0;exitY=0.5;exitDx=0;exitDy=0;" parent="1" source="lSTIobcj1I4NxCM1GmG--112" target="lSTIobcj1I4NxCM1GmG--35" edge="1">
          <mxGeometry relative="1" as="geometry">
            <mxPoint x="2080" y="-1073" as="sourcePoint" />
          </mxGeometry>
        </mxCell>
        <mxCell id="lSTIobcj1I4NxCM1GmG--105" value="fournis" style="edgeLabel;html=1;align=center;verticalAlign=middle;resizable=0;points=[];fontFamily=Helvetica;fontSize=11;fontColor=default;labelBackgroundColor=default;" parent="lSTIobcj1I4NxCM1GmG--104" vertex="1" connectable="0">
          <mxGeometry x="-0.0489" y="1" relative="1" as="geometry">
            <mxPoint x="-1" y="-17" as="offset" />
          </mxGeometry>
        </mxCell>
        <mxCell id="lSTIobcj1I4NxCM1GmG--106" value="0,n" style="edgeLabel;html=1;align=center;verticalAlign=middle;resizable=0;points=[];fontFamily=Helvetica;fontSize=11;fontColor=default;labelBackgroundColor=default;" parent="lSTIobcj1I4NxCM1GmG--104" vertex="1" connectable="0">
          <mxGeometry x="0.9261" y="2" relative="1" as="geometry">
            <mxPoint x="-2" y="1" as="offset" />
          </mxGeometry>
        </mxCell>
        <mxCell id="lSTIobcj1I4NxCM1GmG--107" value="1,1" style="edgeLabel;html=1;align=center;verticalAlign=middle;resizable=0;points=[];fontFamily=Helvetica;fontSize=11;fontColor=default;labelBackgroundColor=default;" parent="lSTIobcj1I4NxCM1GmG--104" vertex="1" connectable="0">
          <mxGeometry x="-0.9226" y="1" relative="1" as="geometry">
            <mxPoint x="1" y="-2" as="offset" />
          </mxGeometry>
        </mxCell>
        <mxCell id="lSTIobcj1I4NxCM1GmG--108" style="edgeStyle=orthogonalEdgeStyle;shape=connector;rounded=0;orthogonalLoop=1;jettySize=auto;html=1;entryX=0.75;entryY=0;entryDx=0;entryDy=0;strokeColor=default;strokeWidth=2;align=center;verticalAlign=middle;fontFamily=Helvetica;fontSize=11;fontColor=default;labelBackgroundColor=default;startFill=0;endArrow=none;exitX=1;exitY=0.5;exitDx=0;exitDy=0;" parent="1" source="lSTIobcj1I4NxCM1GmG--112" target="lSTIobcj1I4NxCM1GmG--9" edge="1">
          <mxGeometry relative="1" as="geometry">
            <Array as="points">
              <mxPoint x="2330" y="-1100" />
            </Array>
          </mxGeometry>
        </mxCell>
        <mxCell id="lSTIobcj1I4NxCM1GmG--109" value="0,n" style="edgeLabel;html=1;align=center;verticalAlign=middle;resizable=0;points=[];" parent="lSTIobcj1I4NxCM1GmG--108" vertex="1" connectable="0">
          <mxGeometry x="0.9073" relative="1" as="geometry">
            <mxPoint y="3" as="offset" />
          </mxGeometry>
        </mxCell>
        <mxCell id="lSTIobcj1I4NxCM1GmG--110" value="0,n" style="edgeLabel;html=1;align=center;verticalAlign=middle;resizable=0;points=[];" parent="lSTIobcj1I4NxCM1GmG--108" vertex="1" connectable="0">
          <mxGeometry x="-0.9036" relative="1" as="geometry">
            <mxPoint x="-4" y="-1" as="offset" />
          </mxGeometry>
        </mxCell>
        <mxCell id="lSTIobcj1I4NxCM1GmG--111" value="match" style="edgeLabel;html=1;align=center;verticalAlign=middle;resizable=0;points=[];" parent="lSTIobcj1I4NxCM1GmG--108" vertex="1" connectable="0">
          <mxGeometry x="0.0475" y="1" relative="1" as="geometry">
            <mxPoint x="-1" y="-32" as="offset" />
          </mxGeometry>
        </mxCell>
        <mxCell id="lSTIobcj1I4NxCM1GmG--112" value="TRAJET" style="rounded=0;whiteSpace=wrap;html=1;fontFamily=Helvetica;fontSize=11;labelBackgroundColor=none;fillColor=#dae8fc;strokeColor=#6c8ebf;" parent="1" vertex="1">
          <mxGeometry x="2121" y="-1120" width="120" height="40" as="geometry" />
        </mxCell>
        <mxCell id="lSTIobcj1I4NxCM1GmG--113" value="PAIEMENT" style="rounded=0;whiteSpace=wrap;html=1;fontFamily=Helvetica;fontSize=11;labelBackgroundColor=none;fillColor=#dae8fc;strokeColor=#6c8ebf;" parent="1" vertex="1">
          <mxGeometry x="2482" y="-900" width="120" height="40" as="geometry" />
        </mxCell>
        <mxCell id="lSTIobcj1I4NxCM1GmG--121" value="1,1" style="edgeLabel;html=1;align=center;verticalAlign=middle;resizable=0;points=[];fontFamily=Helvetica;fontSize=11;fontColor=default;labelBackgroundColor=default;" parent="1" vertex="1" connectable="0">
          <mxGeometry x="2000.0007411810302" y="-890.3171660685725" as="geometry">
            <mxPoint x="-10" y="9" as="offset" />
          </mxGeometry>
        </mxCell>
      </root>
    </mxGraphModel>
  </diagram>
</mxfile>
